<svg width="512" height="512" viewBox="0 0 512 512" fill="none" xmlns="http://www.w3.org/2000/svg">
<g clip-path="url(#clip0_304_9)">
<rect width="512" height="512" rx="204.8" fill="#DEDEDE"/>
<g clip-path="url(#clip1_304_9)">
<path d="M131 159.961C131 154.441 135.644 150 141.417 150H161.165C170.714 150 179.177 155.312 183.127 163.281H361.512C372.927 163.281 381.26 173.657 378.266 184.199L360.47 247.41C356.781 260.442 344.411 269.531 330.306 269.531H205.089L207.432 281.36C208.387 286.05 212.684 289.453 217.675 289.453H342.806C348.578 289.453 353.222 293.894 353.222 299.414C353.222 304.934 348.578 309.375 342.806 309.375H217.675C202.658 309.375 189.767 299.165 186.99 285.095L164.594 172.62C164.29 171.042 162.858 169.922 161.165 169.922H141.417C135.644 169.922 131 165.481 131 159.961ZM186.556 342.578C186.556 339.962 187.094 337.371 188.141 334.954C189.188 332.537 190.723 330.341 192.657 328.491C194.592 326.641 196.889 325.174 199.416 324.173C201.944 323.172 204.653 322.656 207.389 322.656C210.125 322.656 212.834 323.172 215.361 324.173C217.889 325.174 220.186 326.641 222.12 328.491C224.055 330.341 225.589 332.537 226.636 334.954C227.683 337.371 228.222 339.962 228.222 342.578C228.222 345.194 227.683 347.785 226.636 350.202C225.589 352.619 224.055 354.815 222.12 356.665C220.186 358.515 217.889 359.982 215.361 360.984C212.834 361.985 210.125 362.5 207.389 362.5C204.653 362.5 201.944 361.985 199.416 360.984C196.889 359.982 194.592 358.515 192.657 356.665C190.723 354.815 189.188 352.619 188.141 350.202C187.094 347.785 186.556 345.194 186.556 342.578ZM332.389 322.656C337.914 322.656 343.213 324.755 347.12 328.491C351.027 332.227 353.222 337.295 353.222 342.578C353.222 347.862 351.027 352.929 347.12 356.665C343.213 360.401 337.914 362.5 332.389 362.5C326.864 362.5 321.564 360.401 317.657 356.665C313.75 352.929 311.556 347.862 311.556 342.578C311.556 337.295 313.75 332.227 317.657 328.491C321.564 324.755 326.864 322.656 332.389 322.656Z" fill="#6E6E6E"/>
</g>
</g>
<defs>
<clipPath id="clip0_304_9">
<rect width="512" height="512" fill="white"/>
</clipPath>
<clipPath id="clip1_304_9">
<rect width="250" height="212.5" fill="white" transform="translate(131 150)"/>
</clipPath>
</defs>
</svg>
